# xmcd CD database file
#
# Track frame offsets:
#	150
#	15346
#	24891
#	33375
#	44754
#	53071
#	63885
#	72031
#	85025
#	94067
#	103529
#
# Disc length: 1501 seconds
#
# Revision: 0
# Processed by: cddbd v1.5.2PL0 Copyright (c) Steve Scherf et al.
# Submitted via: CDex 1.70beta2
#
DISCID=7b05db0b
DTITLE=Giroux, Emilien and Shelia - Cdn - Kitchen Party
DYEAR=1900
DGENRE=Country
TTITLE0=Roses Are Blooming
TTITLE1=Red River Valley
TTITLE2=Maole Sugar
TTITLE3=Wooden Heart
TTITLE4=You Are My Sunshine
TTITLE5=Young So Young
TTITLE6=Darling Nellie Grey- Yelow Rose of Texas
TTITLE7=Shake My I Rattle
TTITLE8=Red Wind
TTITLE9=St. Anne's Reel
TTITLE10=Chase Me Charlie
EXTD=
EXTT0=
EXTT1=
EXTT2=
EXTT3=
EXTT4=
EXTT5=
EXTT6=
EXTT7=
EXTT8=
EXTT9=
EXTT10=
PLAYORDER=
